G04 ================== begin FILE IDENTIFICATION RECORD ==================*
G04 Layout Name:  FRIGE DOOR ALARM.brd*
G04 Film Name:    assemblytop*
G04 File Format:  Gerber RS274X*
G04 File Origin:  Cadence Allegro 17.2-S025*
G04 Origin Date:  Tue Jun 10 18:33:05 2025*
G04 *
G04 Layer:  USER PART NUMBER/DISPLAY_EMBEDDED*
G04 Layer:  TOLERANCE/DISPLAY_EMBEDDED*
G04 Layer:  REF DES/ASSEMBLY_TOP*
G04 Layer:  REF DES/DISPLAY_EMBEDDED*
G04 Layer:  PACKAGE GEOMETRY/ASSEMBLY_TOP*
G04 Layer:  DEVICE TYPE/DISPLAY_EMBEDDED*
G04 Layer:  COMPONENT VALUE/DISPLAY_EMBEDDED*
G04 Layer:  BOARD GEOMETRY/ASSEMBLY_NOTES*
G04 Layer:  BOARD GEOMETRY/ASSEMBLY_DETAIL*
G04 Layer:  BOARD GEOMETRY/DESIGN_OUTLINE*
G04 *
G04 Offset:    (0.00 0.00)*
G04 Mirror:    No*
G04 Mode:      Positive*
G04 Rotation:  0*
G04 FullContactRelief:  No*
G04 UndefLineWidth:     0.00*
G04 ================== end FILE IDENTIFICATION RECORD ====================*
%FSLAX25Y25*MOIN*%
%IR0*IPPOS*OFA0.00000B0.00000*MIA0B0*SFA1.00000B1.00000*%
%ADD10C,.006*%
%ADD11C,.008*%
G75*
%LPD*%
G75*
G54D10*
G01X95500Y94500D02*
Y85500D01*
G01D02*
X117500D01*
G01Y94500D02*
X95500D01*
G01X117500Y134500D02*
X95500D01*
G01D02*
Y125500D01*
G01D02*
X117500D01*
G01X105500Y182000D02*
Y173000D01*
G01D02*
X127500D01*
G01Y182000D02*
X105500D01*
G01X117500Y85500D02*
Y94500D01*
G01Y125500D02*
Y134500D01*
G01X127500Y173000D02*
Y182000D01*
G01X209450Y171500D02*
X232200D01*
G01X231950Y158500D02*
X209450D01*
G01D02*
Y171500D01*
G01X232200D02*
X231950D01*
G01D02*
Y158500D01*
G54D11*
G01X31500Y130183D02*
X28400D01*
Y131142D01*
X28555Y131448D01*
X28762Y131640D01*
X29175Y131717D01*
X29588Y131640D01*
X29847Y131410D01*
X30002Y131142D01*
Y130183D01*
G01Y131142D02*
X31500Y131717D01*
G01X28917Y133322D02*
X28607Y133552D01*
X28452Y133820D01*
X28400Y134127D01*
X28503Y134510D01*
X28762Y134778D01*
X29072Y134855D01*
X29382Y134817D01*
X29640Y134663D01*
X30157Y133897D01*
X30518Y133552D01*
X31035Y133322D01*
X31500Y133245D01*
Y134855D01*
G01X70500Y109787D02*
X73000D01*
Y109253D01*
X72875Y109040D01*
X72708Y108880D01*
X72458Y108747D01*
X72167Y108640D01*
X71750Y108613D01*
X71333Y108640D01*
X71042Y108747D01*
X70792Y108880D01*
X70625Y109040D01*
X70500Y109253D01*
Y109787D01*
G01Y107000D02*
X73000D01*
X72500Y107320D01*
G01X70500D02*
Y106680D01*
G01X70343Y155583D02*
X69963Y155833D01*
X69520Y156000D01*
X69013D01*
X68443Y155750D01*
X68000Y155333D01*
X67683Y154833D01*
X67430Y154000D01*
X67367Y153250D01*
X67493Y152500D01*
X67683Y152000D01*
X68063Y151500D01*
X68507Y151167D01*
X68950Y151000D01*
X69393D01*
X69837Y151167D01*
X70217Y151417D01*
X70533Y151750D01*
G01X74050Y151000D02*
Y156000D01*
X73290Y155000D01*
G01Y151000D02*
X74810D01*
G01X101933Y86500D02*
Y94000D01*
X104267D01*
X105013Y93625D01*
X105480Y93125D01*
X105667Y92125D01*
X105480Y91125D01*
X104920Y90500D01*
X104267Y90125D01*
X101933D01*
G01X104267D02*
X105667Y86500D01*
G01X111300D02*
Y94000D01*
X110180Y92500D01*
G01Y86500D02*
X112420D01*
G01X100933Y126500D02*
Y134000D01*
X103267D01*
X104013Y133625D01*
X104480Y133125D01*
X104667Y132125D01*
X104480Y131125D01*
X103920Y130500D01*
X103267Y130125D01*
X100933D01*
G01X103267D02*
X104667Y126500D01*
G01X108247Y128000D02*
X108807Y127125D01*
X109553Y126625D01*
X110393Y126500D01*
X111140Y126625D01*
X111887Y127250D01*
X112353Y128000D01*
X112447Y128750D01*
X112260Y129625D01*
X111607Y130250D01*
X110953Y130500D01*
X110113D01*
G01X110953D02*
X111513Y130875D01*
X111980Y131500D01*
X112167Y132250D01*
X111980Y133000D01*
X111513Y133625D01*
X110673Y134000D01*
X109833Y133875D01*
X108993Y133375D01*
G01X84207Y203153D02*
X84360Y203308D01*
X84475Y203567D01*
X84552Y203928D01*
X84475Y204238D01*
X84322Y204445D01*
X84053Y204600D01*
X83018D01*
Y201500D01*
X84283D01*
X84552Y201707D01*
X84705Y202017D01*
X84782Y202378D01*
X84705Y202740D01*
X84475Y203050D01*
X84207Y203153D01*
X83018D01*
G01X86272Y204600D02*
X87728D01*
X86272Y201500D01*
X87728D01*
G01X90100D02*
Y204600D01*
X89640Y203980D01*
G01Y201500D02*
X90560D01*
G01X113433Y174500D02*
Y182000D01*
X115767D01*
X116513Y181625D01*
X116980Y181125D01*
X117167Y180125D01*
X116980Y179125D01*
X116420Y178500D01*
X115767Y178125D01*
X113433D01*
G01X115767D02*
X117167Y174500D01*
G01X123920D02*
Y182000D01*
X120467Y176625D01*
X125133D01*
G01X168492Y204100D02*
X169450Y201000D01*
X170408Y204100D01*
G01X172550Y201000D02*
Y204100D01*
X172090Y203480D01*
G01Y201000D02*
X173010D01*
G01X173957Y78900D02*
Y75317D01*
X174210Y74567D01*
X174717Y74067D01*
X175350Y73900D01*
X175983Y74067D01*
X176490Y74567D01*
X176743Y75317D01*
Y78900D01*
G01X180450Y73900D02*
Y78900D01*
X179690Y77900D01*
G01Y73900D02*
X181210D01*
G01X181457Y143900D02*
Y140317D01*
X181710Y139567D01*
X182217Y139067D01*
X182850Y138900D01*
X183483Y139067D01*
X183990Y139567D01*
X184243Y140317D01*
Y143900D01*
G01X186747Y143067D02*
X187127Y143567D01*
X187570Y143817D01*
X188077Y143900D01*
X188710Y143733D01*
X189153Y143317D01*
X189280Y142817D01*
X189217Y142317D01*
X188963Y141900D01*
X187697Y141067D01*
X187127Y140483D01*
X186747Y139650D01*
X186620Y138900D01*
X189280D01*
G01X220353Y168875D02*
X219793Y169250D01*
X219140Y169500D01*
X218393D01*
X217553Y169125D01*
X216900Y168500D01*
X216433Y167750D01*
X216060Y166500D01*
X215967Y165375D01*
X216153Y164250D01*
X216433Y163500D01*
X216993Y162750D01*
X217647Y162250D01*
X218300Y162000D01*
X218953D01*
X219607Y162250D01*
X220167Y162625D01*
X220633Y163125D01*
G01X224027Y168250D02*
X224587Y169000D01*
X225240Y169375D01*
X225987Y169500D01*
X226920Y169250D01*
X227573Y168625D01*
X227760Y167875D01*
X227667Y167125D01*
X227293Y166500D01*
X225427Y165250D01*
X224587Y164375D01*
X224027Y163125D01*
X223840Y162000D01*
X227760D01*
M02*
