G04 ================== begin FILE IDENTIFICATION RECORD ==================*
G04 Layout Name:  FRIGE DOOR ALARM.brd*
G04 Film Name:    SSTOP*
G04 File Format:  Gerber RS274X*
G04 File Origin:  Cadence Allegro 17.2-S025*
G04 Origin Date:  Tue May 27 21:19:06 2025*
G04 *
G04 Layer:  REF DES/SILKSCREEN_TOP*
G04 Layer:  PACKAGE GEOMETRY/SILKSCREEN_TOP*
G04 Layer:  COMPONENT VALUE/SILKSCREEN_TOP*
G04 Layer:  COMPONENT VALUE/DISPLAY_EMBEDDED*
G04 Layer:  COMPONENT VALUE/ASSEMBLY_EMBEDDED*
G04 Layer:  BOARD GEOMETRY/SILKSCREEN_TOP*
G04 *
G04 Offset:    (0.00 0.00)*
G04 Mirror:    No*
G04 Mode:      Positive*
G04 Rotation:  0*
G04 FullContactRelief:  No*
G04 UndefLineWidth:     0.00*
G04 ================== end FILE IDENTIFICATION RECORD ====================*
%FSLAX25Y25*MOIN*%
%IR0*IPPOS*OFA0.00000B0.00000*MIA0B0*SFA1.00000B1.00000*%
%ADD10C,.006*%
%ADD11C,.008*%
G75*
%LPD*%
G75*
G54D10*
G01X95500Y94500D02*
Y85500D01*
G01D02*
X117500D01*
G01Y94500D02*
X95500D01*
G01X117500Y134500D02*
X95500D01*
G01D02*
Y125500D01*
G01D02*
X117500D01*
G01X105500Y182000D02*
Y173000D01*
G01D02*
X127500D01*
G01Y182000D02*
X105500D01*
G01X117500Y85500D02*
Y94500D01*
G01Y125500D02*
Y134500D01*
G01X127500Y173000D02*
Y182000D01*
G01X209450Y171500D02*
X232200D01*
G01X231950Y158500D02*
X209450D01*
G01D02*
Y171500D01*
G01X232200D02*
X231950D01*
G01D02*
Y158500D01*
G54D11*
G01X24500Y124883D02*
X21400D01*
Y125842D01*
X21555Y126148D01*
X21762Y126340D01*
X22175Y126417D01*
X22588Y126340D01*
X22847Y126110D01*
X23002Y125842D01*
Y124883D01*
G01Y125842D02*
X24500Y126417D01*
G01X21917Y128022D02*
X21607Y128252D01*
X21452Y128520D01*
X21400Y128827D01*
X21503Y129210D01*
X21762Y129478D01*
X22072Y129555D01*
X22382Y129517D01*
X22640Y129363D01*
X23157Y128597D01*
X23518Y128252D01*
X24035Y128022D01*
X24500Y127945D01*
Y129555D01*
G01X48843Y168583D02*
X48463Y168833D01*
X48020Y169000D01*
X47513D01*
X46943Y168750D01*
X46500Y168333D01*
X46183Y167833D01*
X45930Y167000D01*
X45867Y166250D01*
X45993Y165500D01*
X46183Y165000D01*
X46563Y164500D01*
X47007Y164167D01*
X47450Y164000D01*
X47893D01*
X48337Y164167D01*
X48717Y164417D01*
X49033Y164750D01*
G01X52550Y164000D02*
Y169000D01*
X51790Y168000D01*
G01Y164000D02*
X53310D01*
G01X75000Y112287D02*
X77500D01*
Y111753D01*
X77375Y111540D01*
X77208Y111380D01*
X76958Y111247D01*
X76667Y111140D01*
X76250Y111113D01*
X75833Y111140D01*
X75542Y111247D01*
X75292Y111380D01*
X75125Y111540D01*
X75000Y111753D01*
Y112287D01*
G01Y109500D02*
X77500D01*
X77000Y109820D01*
G01X75000D02*
Y109180D01*
G01X76907Y209653D02*
X77060Y209808D01*
X77175Y210067D01*
X77252Y210428D01*
X77175Y210738D01*
X77022Y210945D01*
X76753Y211100D01*
X75718D01*
Y208000D01*
X76983D01*
X77252Y208207D01*
X77405Y208517D01*
X77482Y208878D01*
X77405Y209240D01*
X77175Y209550D01*
X76907Y209653D01*
X75718D01*
G01X78972Y211100D02*
X80428D01*
X78972Y208000D01*
X80428D01*
G01X82800D02*
Y211100D01*
X82340Y210480D01*
G01Y208000D02*
X83260D01*
G01X96133Y76700D02*
Y84200D01*
X98467D01*
X99213Y83825D01*
X99680Y83325D01*
X99867Y82325D01*
X99680Y81325D01*
X99120Y80700D01*
X98467Y80325D01*
X96133D01*
G01X98467D02*
X99867Y76700D01*
G01X105500D02*
Y84200D01*
X104380Y82700D01*
G01Y76700D02*
X106620D01*
G01X96133Y116700D02*
Y124200D01*
X98467D01*
X99213Y123825D01*
X99680Y123325D01*
X99867Y122325D01*
X99680Y121325D01*
X99120Y120700D01*
X98467Y120325D01*
X96133D01*
G01X98467D02*
X99867Y116700D01*
G01X103447Y118200D02*
X104007Y117325D01*
X104753Y116825D01*
X105593Y116700D01*
X106340Y116825D01*
X107087Y117450D01*
X107553Y118200D01*
X107647Y118950D01*
X107460Y119825D01*
X106807Y120450D01*
X106153Y120700D01*
X105313D01*
G01X106153D02*
X106713Y121075D01*
X107180Y121700D01*
X107367Y122450D01*
X107180Y123200D01*
X106713Y123825D01*
X105873Y124200D01*
X105033Y124075D01*
X104193Y123575D01*
G01X106133Y164200D02*
Y171700D01*
X108467D01*
X109213Y171325D01*
X109680Y170825D01*
X109867Y169825D01*
X109680Y168825D01*
X109120Y168200D01*
X108467Y167825D01*
X106133D01*
G01X108467D02*
X109867Y164200D01*
G01X116620D02*
Y171700D01*
X113167Y166325D01*
X117833D01*
G01X162192Y211100D02*
X163150Y208000D01*
X164108Y211100D01*
G01X166250Y208000D02*
Y211100D01*
X165790Y210480D01*
G01Y208000D02*
X166710D01*
G01X189000Y65200D02*
Y60200D01*
G01X187543Y65200D02*
X190457D01*
G01X192770Y60867D02*
X193277Y60450D01*
X193847Y60200D01*
X194353D01*
X194860Y60450D01*
X195240Y60867D01*
X195430Y61450D01*
X195303Y62033D01*
X194987Y62533D01*
X194417Y62867D01*
X193657Y63033D01*
X193213Y63367D01*
X193023Y63950D01*
X193150Y64533D01*
X193467Y64950D01*
X193910Y65200D01*
X194353D01*
X194797Y65033D01*
X195177Y64617D01*
G01X197807Y60950D02*
X198187Y60533D01*
X198630Y60283D01*
X199200Y60200D01*
X199770Y60367D01*
X200213Y60700D01*
X200530Y61283D01*
X200593Y61950D01*
X200467Y62617D01*
X200150Y63033D01*
X199707Y63367D01*
X199263Y63450D01*
X198820Y63367D01*
X198250Y63033D01*
X198440Y65200D01*
X200150D01*
G01X202907Y60950D02*
X203287Y60533D01*
X203730Y60283D01*
X204300Y60200D01*
X204870Y60367D01*
X205313Y60700D01*
X205630Y61283D01*
X205693Y61950D01*
X205567Y62617D01*
X205250Y63033D01*
X204807Y63367D01*
X204363Y63450D01*
X203920Y63367D01*
X203350Y63033D01*
X203540Y65200D01*
X205250D01*
G01X208007Y60950D02*
X208387Y60533D01*
X208830Y60283D01*
X209400Y60200D01*
X209970Y60367D01*
X210413Y60700D01*
X210730Y61283D01*
X210793Y61950D01*
X210667Y62617D01*
X210350Y63033D01*
X209907Y63367D01*
X209463Y63450D01*
X209020Y63367D01*
X208450Y63033D01*
X208640Y65200D01*
X210350D01*
G01X215893Y64783D02*
X215513Y65033D01*
X215070Y65200D01*
X214563D01*
X213993Y64950D01*
X213550Y64533D01*
X213233Y64033D01*
X212980Y63200D01*
X212917Y62450D01*
X213043Y61700D01*
X213233Y61200D01*
X213613Y60700D01*
X214057Y60367D01*
X214500Y60200D01*
X214943D01*
X215387Y60367D01*
X215767Y60617D01*
X216083Y60950D01*
G01X218143Y60200D02*
Y65200D01*
X221057Y60200D01*
Y65200D01*
G01X198157Y79300D02*
Y75717D01*
X198410Y74967D01*
X198917Y74467D01*
X199550Y74300D01*
X200183Y74467D01*
X200690Y74967D01*
X200943Y75717D01*
Y79300D01*
G01X204650Y74300D02*
Y79300D01*
X203890Y78300D01*
G01Y74300D02*
X205410D01*
G01X196500Y130200D02*
Y125200D01*
G01X195043Y130200D02*
X197957D01*
G01X200270Y125867D02*
X200777Y125450D01*
X201347Y125200D01*
X201853D01*
X202360Y125450D01*
X202740Y125867D01*
X202930Y126450D01*
X202803Y127033D01*
X202487Y127533D01*
X201917Y127867D01*
X201157Y128033D01*
X200713Y128367D01*
X200523Y128950D01*
X200650Y129533D01*
X200967Y129950D01*
X201410Y130200D01*
X201853D01*
X202297Y130033D01*
X202677Y129617D01*
G01X205307Y125950D02*
X205687Y125533D01*
X206130Y125283D01*
X206700Y125200D01*
X207270Y125367D01*
X207713Y125700D01*
X208030Y126283D01*
X208093Y126950D01*
X207967Y127617D01*
X207650Y128033D01*
X207207Y128367D01*
X206763Y128450D01*
X206320Y128367D01*
X205750Y128033D01*
X205940Y130200D01*
X207650D01*
G01X210407Y125950D02*
X210787Y125533D01*
X211230Y125283D01*
X211800Y125200D01*
X212370Y125367D01*
X212813Y125700D01*
X213130Y126283D01*
X213193Y126950D01*
X213067Y127617D01*
X212750Y128033D01*
X212307Y128367D01*
X211863Y128450D01*
X211420Y128367D01*
X210850Y128033D01*
X211040Y130200D01*
X212750D01*
G01X215507Y125950D02*
X215887Y125533D01*
X216330Y125283D01*
X216900Y125200D01*
X217470Y125367D01*
X217913Y125700D01*
X218230Y126283D01*
X218293Y126950D01*
X218167Y127617D01*
X217850Y128033D01*
X217407Y128367D01*
X216963Y128450D01*
X216520Y128367D01*
X215950Y128033D01*
X216140Y130200D01*
X217850D01*
G01X223393Y129783D02*
X223013Y130033D01*
X222570Y130200D01*
X222063D01*
X221493Y129950D01*
X221050Y129533D01*
X220733Y129033D01*
X220480Y128200D01*
X220417Y127450D01*
X220543Y126700D01*
X220733Y126200D01*
X221113Y125700D01*
X221557Y125367D01*
X222000Y125200D01*
X222443D01*
X222887Y125367D01*
X223267Y125617D01*
X223583Y125950D01*
G01X225643Y125200D02*
Y130200D01*
X228557Y125200D01*
Y130200D01*
G01X205657Y144300D02*
Y140717D01*
X205910Y139967D01*
X206417Y139467D01*
X207050Y139300D01*
X207683Y139467D01*
X208190Y139967D01*
X208443Y140717D01*
Y144300D01*
G01X210947Y143467D02*
X211327Y143967D01*
X211770Y144217D01*
X212277Y144300D01*
X212910Y144133D01*
X213353Y143717D01*
X213480Y143217D01*
X213417Y142717D01*
X213163Y142300D01*
X211897Y141467D01*
X211327Y140883D01*
X210947Y140050D01*
X210820Y139300D01*
X213480D01*
G01X227647Y173425D02*
X228207Y173050D01*
X228860Y172800D01*
X229607D01*
X230447Y173175D01*
X231100Y173800D01*
X231567Y174550D01*
X231940Y175800D01*
X232033Y176925D01*
X231847Y178050D01*
X231567Y178800D01*
X231007Y179550D01*
X230353Y180050D01*
X229700Y180300D01*
X229047D01*
X228393Y180050D01*
X227833Y179675D01*
X227367Y179175D01*
G01X223973Y174050D02*
X223413Y173300D01*
X222760Y172925D01*
X222013Y172800D01*
X221080Y173050D01*
X220427Y173675D01*
X220240Y174425D01*
X220333Y175175D01*
X220707Y175800D01*
X222573Y177050D01*
X223413Y177925D01*
X223973Y179175D01*
X224160Y180300D01*
X220240D01*
M02*
